<svg xmlns="http://www.w3.org/2000/svg" fill="#61dafb" viewBox="0 0 294.038 294.038"><path d="M289.513 86.44C286.032 81.22 277.332 76 270.37 76L45.896 60.34l-8.7-27.842c0-1.74-1.74-5.22-5.22-5.22l-20.882-6.96c-3.48-1.74-8.7 0-10.44 5.22-1.74 3.48 0 8.7 5.22 10.44l17.4 5.22 8.7 29.582 34.802 120.068c2.488 9.083 7.76 16.548 14.617 21.943-7.796 6.404-12.894 15.974-12.894 26.78 0 19.14 15.66 34.802 34.802 34.802s34.802-15.66 34.802-34.802c0-6.35-1.844-12.25-4.855-17.4h67.15c-3 5.15-4.855 11.05-4.855 17.4 0 19.14 15.66 34.802 34.802 34.802 19.16 0 34.802-15.66 34.802-34.802 0-9.38-3.793-17.89-9.884-24.17 8.526-5.43 14.913-13.85 16.862-24.553l20.882-81.786c1.725-8.7 1.725-15.66-3.495-22.62zm-186.2 170.532c-10.44 0-17.4-6.96-17.4-17.4s6.96-17.4 17.4-17.4c8.7 0 17.4 6.96 17.4 17.4s-6.96 17.4-17.4 17.4zm127.028 0c-10.44 0-17.4-6.96-17.4-17.4s6.96-17.4 17.4-17.4c10.458 0 17.4 6.96 17.4 17.4s-6.96 17.4-17.4 17.4zm26.102-69.605c-1.462 8.805-9.223 16.026-18.88 18.184-2.332-.505-4.733-.783-7.222-.783-3.602 0-7.013.713-10.284 1.74h-106.46c-3.27-1.027-6.682-1.74-10.284-1.74-.818 0-1.584.19-2.384.244-7.552-2.906-14.147-9.762-16.775-17.645L52.822 79.48l215.775 15.66c3.48 0 5.22 1.74 6.96 3.48s1.74 5.22 1.74 6.96l-20.864 81.787z"/></svg>